<svg xmlns="http://www.w3.org/2000/svg" xmlns:xlink="http://www.w3.org/1999/xlink" xmlns:inkscape="http://www.inkscape.org/namespaces/inkscape" version="1.1" width="2100" height="2100" viewBox="0 0 2100 2100">
<defs>
<clipPath id="clip_1">
<path d="M153.493 139.896H1933.7V1974.07H153.493Z"/>
</clipPath>
</defs>
<g clip-path="url(#clip_1)">
<path transform="matrix(1,0,0,1,923.1572,1389.2255)" d="M0 0C-38.5313-14.4336-73.9141-36.7617-104.7305-63.8672-178.5039-128.6875-221.4219-226.375-219.8281-324.4883-218.5547-402.2227-191.0977-478.4727-141.4219-538.4453-104.9063-582.4961-57.6719-617.3789-4.4219-638.4336 6.9687-642.9258 18.6094-646.8203 30.3906-650.0742 32.6211-650.6758 34.8516-651.2422 37.0781-651.7734 38.9883-652.6211 40.9727-653.2578 43.0234-653.7539 104.3047-668.082 169.2305-666.1016 229.1328-646.3594 252.875-638.5391 275.7656-628.418 297.2773-615.7539 318.3633-603.2969 337.7539-588.543 355.8711-572.1641 394.6133-537.0977 424.4766-491.9531 443.2969-443.3711 463.1133-392.0703 469.5859-336.9102 464.1016-282.3125 459.0078-231.6836 441.1406-181.9727 414.3555-138.875 412.5859-136.082 410.8516-133.3203 409.0117-130.5977 408.6602-129.9609 408.2344-129.3945 407.8437-128.793 379.3281-86.3359 341.1523-50.4922 297.1016-24.5195 249.9023 3.3281 196.7578 18.7891 142.1992 22.2578 135.582 22.6797 128.9297 22.8945 122.3125 22.8945 80.5625 22.8945 39.0977 14.6133 0 0ZM103.0313-580.2656C91.7422-579.2734 80.5625-577.7187 69.4883-575.5234 68.0742-575.207 66.6953-574.8867 65.3477-574.5703 63.3672-574.1445 61.3867-573.7891 59.4063-573.543 52.1875-571.6328 45.0742-569.4727 38-567.0664 26.9609-563.0352 16.2031-558.4336 5.6602-553.2344-4.3867-547.9961-14.1523-542.1953-23.5664-535.8945-32.7305-529.5273-41.5391-522.6992-49.9609-515.375-58.4883-507.6602-66.5547-499.4883-74.125-490.8555-81.168-482.5391-87.7461-473.8711-93.8672-464.8867-99.8828-455.6133-105.4375-446.0625-110.4648-436.1914-115.4883-425.8242-119.9102-415.2461-123.7305-404.3477-127.3398-393.3086-130.3828-382.0898-132.7891-370.7344-134.875-359.3398-136.3633-347.8789-137.2109-336.3437-137.7773-324.7383-137.7422-313.168-137.0352-301.6328-136.0781-289.9922-134.4883-278.4219-132.2227-266.957-129.6406-255.3516-126.4219-243.9609-122.5977-232.7461-118.6719-222.0937-114.1797-211.6914-109.1523-201.5391-103.9531-191.7031-98.293-182.1133-92.1016-172.8086-85.5898-163.6445-78.7266-154.832-71.3672-146.3437-63.9727-138.2734-56.1875-130.5977-47.9805-123.3086-39.5938-116.1602-30.8555-109.5078-21.7617-103.2461-12.3125-97.125-2.6211-91.5 7.4648-86.4063 17.7266-81.4531 28.2695-77.0625 39.0234-73.2773 49.8516-69.7031 60.8555-66.7344 72-64.3984 83.5352-62.2383 95.1055-60.7188 106.8164-59.832 118.918-59.1953 130.9844-59.3008 143.0469-60.082 154.4414-61.0703 165.7617-62.6992 176.9805-64.9297 188.1953-67.4414 199.2344-70.5547 210.0977-74.2344 220.4297-78.0195 230.4766-82.3008 240.3477-87.1133 250.5039-92.4219 260.4102-98.1875 269.9609-104.5547 279.4805-111.1719 288.5742-118.3555 297.3477-125.9961 305.0625-133.1094 312.4219-140.5391 319.4258-148.3594 326.8555-157.0625 333.8281-166.1562 340.3008-175.5664 340.3359-175.6719 340.4062-175.7812 340.4805-175.8516 346.5273-185.1562 351.9766-194.7812 357.0039-204.6523 361.7773-214.6641 366.0586-224.8555 369.8437-235.293 373.4883-246.4727 376.5312-257.793 379.0078-269.2578 381.1328-280.8633 382.6172-292.4687 383.5039-304.1797 384.0352-315.5742 384-326.9297 383.3984-338.3242 382.4062-349.7891 380.8477-361.2148 378.6914-372.5742 376.1445-384.1797 372.9609-395.5703 369.1719-406.8945 365.3164-417.3672 360.9297-427.6641 356.0117-437.7109 350.5977-448.0078 344.6875-457.9844 338.2852-467.6445 331.9531-476.668 325.1953-485.3008 317.9766-493.6133 310.5469-501.7891 302.6562-509.5352 294.4102-516.9336 285.957-524.0781 277.1797-530.8008 268.0859-537.0625 258.7461-543.1133 249.1562-548.7031 239.2148-553.8008 228.6367-558.8594 217.8789-563.3164 206.8398-567.2461 196.2266-570.6758 185.4727-573.543 174.5742-575.9141 162.8281-578.0703 150.9727-579.6641 139.0508-580.5469 133.8828-580.7969 128.7187-580.9375 123.5508-580.9375 116.7227-580.9375 109.8594-580.6914 103.0313-580.2656Z" fill="#8b2a35"/>
<path transform="matrix(1,0,0,1,277.0825,1212.5234)" d="M0 0C-68.1094-27.3125-123.3398-98.2188-110.9219-174.043-100.9453-242.6484-37.9648-289.7383 25.9336-305.5195 74.1602-317.0195 124.0117-322.1133 173.582-320.5937 193.5039-320.875 214.2031-314.8945 228.1406-300 241.3398-287.1914 248.1328-269.1836 248.1328-251.1719 248.1328-236.2773 243.4609-221.3828 233.9453-209.457 206.8437-172.2734 156.3516-184.2656 116.582-180.1992 91-176.8711 63.0859-176.9766 40.3359-163.5312 46.7734-151.2891 57.3164-142.0195 69.6328-135.8984 107.4531-117.3242 148.6406-108.1953 188.2656-94.6797 227.043-79.4297 237.5195-26.0039 203.4453 .0352 183.3789 14.1914 152.4727 19.4805 119.6563 19.4844 76.2617 19.4844 29.5156 10.2344 0 0Z" fill="#8b2a35"/>
<path transform="matrix(1,0,0,1,1653.3103,1245.5425)" d="M0 0C-5.5977 0-11.1875-.0898-16.7813-.2617-36.7031 .0234-57.3984-5.957-71.3398-20.8516-84.5391-33.6602-91.2969-51.6719-91.2969-69.6797-91.2969-84.5741-86.6602-99.5078-77.1445-111.3945-50.0391-148.582 .4492-136.5859 40.2188-140.6562 65.8047-143.9805 93.7188-143.875 116.4688-157.3203 110.0313-169.5625 99.4883-178.832 87.1758-184.9531 49.3516-203.5273 8.1641-212.6562-31.4648-226.1719-70.2422-241.4219-80.7148-294.8477-46.6445-320.8906-.0469-353.7578 104.9727-338.8281 156.8047-320.8555 224.9141-293.5391 280.1445-222.6328 267.7266-146.8125 257.75-78.2069 194.7695-31.1133 130.8711-15.332 88.2031-5.1602 44.25 0 .3555 0 .2383 0 .1172 0 0 0Z" fill="#8b2a35"/>
<path transform="matrix(1,0,0,1,515.1965,734.0471)" d="M0 0C-56.1875-9.7305-119.875-94.5391-143.8281-143.8945-172.6641-211.3711-161.5898-300.5664-99.1758-345.3946-43.625-386.8633 34.2148-375.6133 90.543-341.5742 132.7891-315.6055 171.6367-283.9727 205.6016-247.8477 219.8984-233.9414 230.3008-215.0859 229.6289-194.7031 229.9102-176.3047 221.9492-158.793 209.2461-146.0898 198.7031-135.5117 184.8711-128.293 169.7266-126.5938 124.2617-119.4492 97.0508-163.6406 66.0234-188.8672 45.6055-204.6133 25.9336-224.4258 .3516-231.0078-3.75-217.8086-2.8672-203.7969 1.5195-190.7422 15.1055-150.8672 37.7852-115.3086 56.2578-77.7344 71.9297-41.7188 45.8672 .4844 7.2148 .4844 4.8555 .4844 2.4453 .3281 0 0Z" fill="#8b2a35"/>
<path transform="matrix(1,0,0,1,1577.2117,739.5223)" d="M0 0C-18.3633 .2852-35.875-7.6406-48.5781-20.3789-59.1563-30.9219-66.4102-44.7578-68.1094-59.9336-75.2227-105.3672-31.0273-132.5742-5.8008-163.5703 9.9062-184.0195 29.7578-203.6914 36.3008-229.3086 23.1055-233.414 9.0937-232.4922-3.9258-228.1054-43.8008-214.4844-79.3594-191.8398-116.9727-173.3711-155.1484-156.7383-200.3672-187.1328-194.6719-229.625-184.9766-285.8125-100.1641-349.5-50.8086-373.4531 16.6992-402.289 105.8633-391.2148 150.6914-328.8359 192.1602-273.2539 180.9453-195.4141 146.9062-139.0859 120.9727-96.8398 89.3047-57.9883 53.1445-24.0234 39.6992-10.1875 21.6172 .0352 1.9453 .0352 1.3086 .0352 .6367 0 0 0Z" fill="#8b2a35"/>
<path transform="matrix(1,0,0,1,380.2374,1686.84)" d="M0 0C-41.4688-55.5469-30.2148-133.3867 3.7852-189.75 29.7539-231.9609 61.4219-270.8125 97.5469-304.8125 111.418-319.0703 130.3125-329.5078 150.6914-328.8008 169.0898-329.0859 186.6016-321.1602 199.3047-308.4219 209.8477-297.8789 217.1016-284.043 218.8008-268.8984 225.9492-223.4336 181.7539-196.2266 156.5273-165.2305 140.7852-144.7812 120.9688-125.1094 114.3906-99.5273 127.5859-95.4219 141.5977-96.3086 154.6523-100.6953 194.5273-114.3164 230.0859-136.9609 267.6641-155.4297 305.875-172.0586 351.0586-141.7031 345.3984-99.2109 335.668-42.9883 250.8555 20.6992 201.5 44.6523 178.2734 54.582 152.4609 59.7773 126.7813 59.7773 77.8633 59.7813 29.3945 40.9297 0 0Z" fill="#8b2a35"/>
<path transform="matrix(1,0,0,1,1006.9636,1972.0612)" d="M0 0C-68.6055-9.9766-115.6992-72.957-131.4805-136.8594-142.9766-185.082-148.0742-234.9375-146.5508-284.5078-146.8359-304.4258-140.8555-325.125-125.9609-339.0664-113.1523-352.2617-95.1406-359.0234-77.168-359.0234-62.2383-359.0234-47.3398-354.3906-35.418-344.8672 1.7695-317.7656-10.2266-267.2734-6.1562-227.5078-2.832-201.9258-2.9375-174.0078 10.5078-151.2578 22.75-157.6992 32.0195-168.2422 38.1406-180.5547 56.7188-218.3789 65.8477-259.5625 79.3672-299.1914 94.6172-337.9687 148.043-348.4414 174.082-314.3672 206.9531-267.7695 192.0234-162.7578 174.0468-110.9219 149.3437-49.3203 88.9648 1.75 21.5508 1.7539 14.4297 1.7539 7.2422 1.1875 0 0Z" fill="#8b2a35"/>
<path transform="matrix(1,0,0,1,1516.2053,1736.5895)" d="M0 0C-42.2109-25.9688-81.0977-57.6367-115.0625-93.7617-129.3555-107.6289-139.7578-126.4883-139.0859-146.8672-139.3359-165.2656-131.4102-182.7812-118.6719-195.5195-108.1289-206.0625-94.293-213.3164-79.1523-215.0117-33.6836-222.125-6.4766-177.9687 24.5195-152.707 44.9688-136.9609 64.6406-117.1484 90.2227-110.5664 94.3281-123.8008 93.4414-137.8086 89.0547-150.832 75.4336-190.707 52.7891-226.3008 34.3203-263.875 17.6523-302.0898 48.0469-347.2695 90.5391-341.5742 146.7266-331.8789 210.4492-247.0703 234.3672-197.7109 263.2383-130.2383 252.1289-41.043 189.75 3.7891 164.668 22.5 135.0586 30.4844 104.9375 30.4844 68.3086 30.4883 30.9297 18.6797 0 0Z" fill="#8b2a35"/>
<path transform="matrix(1,0,0,1,1516.2053,1736.5895)" d="M0 0C-42.2109-25.9688-81.0977-57.6367-115.0625-93.7617-129.3555-107.6289-139.7578-126.4883-139.0859-146.8672-139.3359-165.2656-131.4102-182.7812-118.6719-195.5195-108.1289-206.0625-94.293-213.3164-79.1523-215.0117-33.6836-222.125-6.4766-177.9687 24.5195-152.707 44.9688-136.9609 64.6406-117.1484 90.2227-110.5664 94.3281-123.8008 93.4414-137.8086 89.0547-150.832 75.4336-190.707 52.7891-226.3008 34.3203-263.875 17.6523-302.0898 48.0469-347.2695 90.5391-341.5742 146.7266-331.8789 210.4492-247.0703 234.3672-197.7109 263.2383-130.2383 252.1289-41.043 189.75 3.7891 164.668 22.5 135.0586 30.4844 104.9375 30.4844 68.3086 30.4883 30.9297 18.6797 0 0Z" fill="#8b2a35"/>
<path transform="matrix(1,0,0,1,1124.1707,497.4315)" d="M0 0C-37.1836-27.0664-25.1563-77.5898-29.2227-117.3242-32.5859-142.9062-32.4805-170.8594-45.9258-193.5742-58.168-187.168-67.4375-176.625-73.5586-164.3125-92.1328-126.4883-101.2617-85.3047-114.7773-45.6758-130.0273-6.8984-183.4531 3.6094-209.4961-30.5-242.3633-77.0977-227.4336-182.0742-209.4609-233.9453-182.1094-302.0547-111.2383-357.2852-35.4141-344.8672 33.1914-334.8867 80.3203-271.9102 96.0625-208.0078 107.5625-159.7852 112.6563-109.9297 111.1367-60.3594 111.418-40.4414 105.4414-19.707 90.543-5.8008 77.7695 7.3945 59.7617 14.1523 41.7539 14.1523 26.8555 14.1523 11.9258 9.4844 0 0Z" fill="#8b2a35"/>
</g>
</svg>
