<svg xmlns="http://www.w3.org/2000/svg" xmlns:xlink="http://www.w3.org/1999/xlink" xmlns:inkscape="http://www.inkscape.org/namespaces/inkscape" version="1.1" width="2100" height="2100" viewBox="0 0 2100 2100">
<defs>
<clipPath id="clip_1">
<path d="M153.493 139.96H1946.51V1949.38H153.493Z"/>
</clipPath>
</defs>
<g clip-path="url(#clip_1)">
<path transform="matrix(1,0,0,1,1134.138,497.4951)" d="M0 0C-37.1863-27.0664-25.1565-77.5918-29.2253-117.3252-32.5867-142.9072-32.4805-170.8584-45.9255-193.5732-58.1677-187.1689-67.4377-176.626-73.5588-164.3125-92.1343-126.4893-101.2627-85.3047-114.7786-45.6777-130.0281-6.8994-183.4548 3.6094-209.4958-30.499-242.3655-77.0967-227.4343-182.0742-209.4604-233.9443-182.1101-302.0547-111.2405-357.2852-35.4172-344.8662 33.1882-334.8887 80.3169-271.9092 96.0618-208.0098 107.5608-159.7842 112.6558-109.9307 111.1343-60.3613 111.4175-40.4414 105.438-19.707 90.5422-5.8018 77.7693 7.3955 59.76 14.1533 41.7507 14.1533 26.855 14.1533 11.9238 9.4824 0 0Z" fill="#8b2a35"/>
<path transform="matrix(1,0,0,1,1601.8858,753.2354)" d="M0 0C-18.363 .2832-35.8772-7.6426-48.5791-20.3799-59.1584-30.9238-66.4116-44.7578-68.1099-59.9365-75.2217-105.3672-31.0298-132.5752-5.8025-163.5703 9.907-184.0205 29.7561-203.6934 36.3018-229.3096 23.1045-233.4141 9.0933-232.4941-3.9272-228.1064-43.8027-214.4844-79.3613-191.8398-116.9722-173.3711-155.1492-156.7412-200.3672-187.1348-194.6707-229.6279-184.9761-285.8145-100.166-349.502-50.8083-373.4551 16.7002-402.291 105.8625-391.2168 150.6914-328.8389 192.1587-273.2539 180.9429-195.4141 146.9055-139.0859 120.9705-96.8398 89.3037-57.9902 53.1436-24.0244 39.6985-10.1895 21.6184 .0352 1.946 .0352 1.3091 .0352 .637 0 0 0Z" fill="#8b2a35"/>
<path transform="matrix(1,0,0,1,923.1562,1389.2236)" d="M0 0C-38.531-14.4355-73.9128-36.7617-104.7302-63.8633-178.5015-128.6836-221.4196-226.3732-219.8274-324.4863-218.5537-402.2207-191.0974-478.4678-141.4214-538.4404-104.9072-582.4912-57.6726-617.377-4.4229-638.4297 6.9702-642.9229 18.6108-646.8154 30.3928-650.0703 32.6218-650.6719 34.8511-651.2373 37.0801-651.7686 38.9907-652.6172 40.9722-653.2549 43.0242-653.75 104.3054-668.0791 169.2312-666.0977 229.1326-646.3555 252.8738-638.5361 275.7659-628.416 297.2781-615.75 318.3657-603.2949 337.7549-588.541 355.8704-572.1592 394.6135-537.0957 424.4758-491.9492 443.2988-443.3691 463.1128-392.0654 469.5876-336.9053 464.1033-282.3105 459.0083-231.6797 441.1406-181.9687 414.3564-138.873 412.5874-136.0781 410.8538-133.3184 409.0139-130.5937 408.6602-129.957 408.2354-129.3906 407.8462-128.7891 379.3286-86.332 341.1516-50.4902 297.1011-24.5195 249.902 3.3262 196.7583 18.7871 142.1995 22.2559 135.583 22.6797 128.9314 22.8926 122.3149 22.8926 80.5642 22.8926 39.0969 14.6133 0 0ZM103.0317-580.2617C91.7449-579.2715 80.5642-577.7139 69.4897-575.5205 68.0745-575.2021 66.6946-574.8838 65.3501-574.5654 63.3687-574.1406 61.3875-573.7871 59.406-573.5391 52.188-571.6289 45.0764-569.4707 38-567.0645 26.9609-563.0312 16.2048-558.4316 5.6609-553.2305-4.3875-547.9932-14.1528-542.1914-23.5645-535.8926-32.7283-529.5244-41.5383-522.6953-49.9592-515.3711-58.4863-507.6582-66.5532-499.4854-74.125-490.8516-81.166-482.5371-87.7471-473.8682-93.8682-464.8818-99.8831-455.6113-105.438-446.0586-110.4622-436.1865-115.4863-425.8203-119.9092-415.2412-123.7305-404.3437-127.3394-393.3037-130.3821-382.0879-132.7881-370.7305-134.8757-359.3379-136.3616-347.874-137.2109-336.3398-137.7769-324.7344-137.7415-313.1641-137.0339-301.6289-136.0786-289.9883-134.4863-278.4199-132.2219-266.9551-129.6392-255.3496-126.4194-243.957-122.5981-232.7422-118.6707-222.0918-114.1772-211.6895-109.1531-201.5352-103.9519-191.6992-98.2908-182.1094-92.0991-172.8047-85.5889-163.6406-78.7246-154.8301-71.3652-146.3398-63.9705-138.2715-56.1865-130.5937-47.9778-123.3047-39.5923-116.1582-30.853-109.5059-21.76-103.2441-12.313-97.123-2.6184-91.498 7.4656-86.4023 17.7261-81.4492 28.27-77.0605 39.0261-73.2754 49.8528-69.7012 60.8567-66.7305 72.002-64.3945 83.5364-62.2363 95.1062-60.7148 106.8176-59.8301 118.9182-59.1934 130.9834-59.2988 143.0486-60.0781 154.4417-61.0684 165.7637-62.6973 176.9797-64.9258 188.1958-67.4375 199.2349-70.5508 210.0972-74.2305 220.4287-78.0176 230.4771-82.2988 240.3486-87.1094 250.5032-92.418 260.4103-98.1836 269.9634-104.5527 279.481-111.1699 288.5742-118.3516 297.3489-125.9941 305.062-133.1055 312.4214-140.5371 319.427-148.3555 326.8572-157.0605 333.8274-166.1523 340.3022-175.5645 340.3376-175.6699 340.4084-175.7773 340.4792-175.8477 346.5295-185.1523 351.9783-194.7773 357.0027-204.6484 361.7791-214.6621 366.0603-224.8516 369.8462-235.2891 373.4905-246.4687 376.5334-257.791 379.01-269.2559 381.1331-280.8613 382.6189-292.4668 383.5037-304.1777 384.0342-315.5703 383.999-326.9277 383.3975-338.3213 382.4067-349.7842 380.8499-361.2129 378.6917-372.5703 376.144-384.1758 372.9597-395.5684 369.1738-406.8906 365.3174-417.3643 360.9299-427.6602 356.012-437.708 350.5984-448.0049 344.6897-457.9824 338.2856-467.6416 331.9521-476.6641 325.1943-485.2969 317.9763-493.6113 310.5461-501.7852 302.656-509.5332 294.4121-516.9287 285.9558-524.0752 277.1812-530.7979 268.0881-537.0605 258.7473-543.1113 249.1587-548.7012 239.2166-553.7959 228.6372-558.8555 217.8811-563.3135 206.842-567.2412 196.2275-570.6729 185.4714-573.5391 174.5737-575.9102 162.8271-578.0684 150.9741-579.6602 139.0505-580.5449 133.8848-580.793 128.719-580.9336 123.5532-580.9336 116.7246-580.9336 109.8606-580.6865 103.0317-580.2617Z" fill="#8b2a35"/>
<path transform="matrix(1,0,0,1,1649.3328,1245.29)" d="M0 0C-19.9199 .2832-40.6182-5.6953-54.5586-20.5918-67.7561-33.4004-74.5142-51.4102-74.5142-69.418-74.5142-84.3146-69.8792-99.2461-60.3613-111.1328-33.2588-148.3203 17.231-136.3262 57.0002-140.3945 82.5813-143.7207 110.4976-143.6152 133.248-157.0586 126.8086-169.3008 116.2649-178.5713 103.9519-184.6924 66.1287-203.2686 24.9443-212.3965-14.6833-225.9121-53.4619-241.1621-63.9348-294.5889-29.8621-320.6299 16.7356-353.499 121.749-338.5684 173.5833-320.5937 241.6934-293.2793 296.9243-222.374 284.5054-146.5508 274.5278-77.9453 211.5481-30.8516 147.6484-15.0723 104.9802-4.8984 61.0308 .2617 17.1377 .2617 11.4209 .2637 5.7124 .1758 0 0Z" fill="#8b2a35"/>
<path transform="matrix(1,0,0,1,510.0732,709.7158)" d="M0 0C-56.1863-9.7305-119.8737-94.54-143.8271-143.8975-172.6633-211.3711-161.5887-300.5684-99.1753-345.3975-43.6257-386.8652 34.2142-375.6133 90.5421-341.5762 132.7881-315.6055 171.6373-283.9746 205.6039-247.8496 219.8982-233.9443 230.3003-215.0859 229.6282-194.7061 229.9111-176.3076 221.9502-158.7939 209.2482-146.0918 198.7043-135.5127 184.8701-128.2949 169.7267-126.5967 124.261-119.4492 97.0524-163.6406 66.0225-188.8682 45.6072-204.6133 25.9349-224.4268 .3539-231.0078-3.7505-217.8105-2.866-203.7998 1.5215-190.7432 15.108-150.8682 37.7878-115.3096 56.2571-77.7344 71.9294-41.7207 45.8677 .4834 7.2157 .4834 4.8552 .4834 2.4479 .3262 0 0Z" fill="#8b2a35"/>
<path transform="matrix(1,0,0,1,277.0839,1212.5264)" d="M0 0C-68.11-27.3145-123.3411-98.2188-110.922-174.043-100.9443-242.6484-37.9647-289.7412 25.9349-305.5215 74.1604-317.0205 124.0133-322.1152 173.5833-320.5937 193.5033-320.877 214.2017-314.8975 228.1421-300.002 241.3395-287.1934 248.1328-269.1846 248.1328-251.1748 248.1328-236.2793 243.4624-221.3838 233.9447-209.46 206.8423-172.2734 156.3523-184.2676 116.5831-180.1992 91.0021-176.873 63.0858-176.9795 40.3353-163.5342 46.7748-151.292 57.3186-142.0215 69.6315-135.9004 107.4547-117.3262 148.6392-108.1973 188.2667-94.6816 227.0453-79.4316 237.5183-26.0059 203.4456 .0352 183.3804 14.1895 152.4746 19.4805 119.6567 19.4824 76.2607 19.4824 29.5143 10.2344 0 0Z" fill="#8b2a35"/>
<path transform="matrix(1,0,0,1,1004.6758,1947.3721)" d="M0 0C-68.6052-9.9766-115.6985-72.957-131.4788-136.8574-142.9778-185.082-148.0728-234.9355-146.5515-284.5059-146.8345-304.4258-140.855-325.123-125.9592-339.0645-113.1509-352.2617-95.1416-359.0195-77.1677-359.0195-62.2366-359.0195-47.3408-354.3848-35.417-344.8672 1.7693-317.7637-10.2253-267.2734-6.1562-227.5059-2.8306-201.9238-2.9365-174.0078 10.5085-151.2578 22.7507-157.6973 32.0208-168.2402 38.1416-180.5527 56.7173-218.377 65.8457-259.5605 79.3616-299.1895 94.6111-337.9668 148.0376-348.4395 174.0787-314.3672 206.9485-267.7695 192.0173-162.7559 174.0433-110.9219 149.3376-49.3184 88.9624 1.75 21.5508 1.7559 14.4314 1.7559 7.2429 1.1875 0 0Z" fill="#8b2a35"/>
<path transform="matrix(1,0,0,1,404.9185,1706.0322)" d="M0 0C-41.4675-55.5488-30.2161-133.3887 3.7859-189.752 29.7561-231.9629 61.4229-270.8125 97.5477-304.8145 111.4174-319.0723 130.3113-329.5098 150.6913-328.8027 169.0897-329.0859 186.6038-321.1602 199.3059-308.4238 209.8496-297.8789 217.1029-284.0449 218.8013-268.9004 225.9484-223.4355 181.7565-196.2266 156.5292-165.2324 140.7843-144.7812 120.9705-125.1094 114.3894-99.5293 127.5869-95.4238 141.5981-96.3086 154.6539-100.6953 194.5293-114.3184 230.088-136.9629 267.6636-155.4316 305.876-172.0605 351.0586-141.7031 345.3975-99.2109 335.6675-42.9883 250.8572 20.6992 201.4995 44.6523 178.2727 54.5801 152.4604 59.7754 126.781 59.7773 77.8625 59.7813 29.3971 40.9277 0 0Z" fill="#8b2a35"/>
<path transform="matrix(1,0,0,1,1465.5596,1711.5869)" d="M0 0C-42.2104-25.9688-81.0952-57.6367-115.0618-93.7617-129.356-107.6309-139.7583-126.4883-139.0859-146.8691-139.3335-165.2676-131.408-182.7812-118.6707-195.5195-108.1267-206.0625-94.2925-213.3164-79.1492-215.0137-33.6833-222.127-6.4749-177.9707 24.5198-152.707 44.9705-136.9629 64.6426-117.1484 90.2236-110.5684 94.3281-123.8008 93.4434-137.8105 89.0562-150.832 75.4341-190.707 52.7898-226.3008 34.3203-263.877 17.6555-302.0898 48.0486-347.2715 90.5422-341.5762 146.7285-331.8809 210.4512-247.0703 234.3694-197.7129 263.241-130.2402 252.1309-41.043 189.7527 3.7871 164.6709 22.498 135.0583 30.4824 104.9397 30.4824 68.3108 30.4863 30.9304 18.6797 0 0Z" fill="#8b2a35"/>
<path transform="matrix(1,0,0,1,1465.5596,1711.5869)" d="M0 0C-42.2104-25.9688-81.0952-57.6367-115.0618-93.7617-129.356-107.6309-139.7583-126.4883-139.0859-146.8691-139.3335-165.2676-131.408-182.7812-118.6707-195.5195-108.1267-206.0625-94.2925-213.3164-79.1492-215.0137-33.6833-222.127-6.4749-177.9707 24.5198-152.707 44.9705-136.9629 64.6426-117.1484 90.2236-110.5684 94.3281-123.8008 93.4434-137.8105 89.0562-150.832 75.4341-190.707 52.7898-226.3008 34.3203-263.877 17.6555-302.0898 48.0486-347.2715 90.5422-341.5762 146.7285-331.8809 210.4512-247.0703 234.3694-197.7129 263.241-130.2402 252.1309-41.043 189.7527 3.7871 164.6709 22.498 135.0583 30.4824 104.9397 30.4824 68.3108 30.4863 30.9304 18.6797 0 0Z" fill="#8b2a35"/>
</g>
</svg>
